<mxfile host="app.diagrams.net" modified="2023-02-10T08:25:32.746Z" agent="5.0 (Windows NT 10.0; Win64; x64) AppleWebKit/537.36 (KHTML, like Gecko) Chrome/109.0.0.0 Safari/537.36" version="20.8.5" etag="shz_GCfdbl2vJmGC7M5t" type="github">
  <diagram id="J7vyku3DdvCyJjQhRJDn" name="第 1 页">
    <mxGraphModel dx="1685" dy="945" grid="1" gridSize="10" guides="1" tooltips="1" connect="1" arrows="1" fold="1" page="1" pageScale="1" pageWidth="827" pageHeight="1169" math="0" shadow="0">
      <root>
        <mxCell id="0" />
        <mxCell id="1" parent="0" />
        <mxCell id="4PPtomYR8Qqas5wJuIB3-16" style="edgeStyle=orthogonalEdgeStyle;rounded=0;orthogonalLoop=1;jettySize=auto;html=1;exitX=0.25;exitY=1;exitDx=0;exitDy=0;entryX=0.5;entryY=0;entryDx=0;entryDy=0;" edge="1" parent="1" source="4PPtomYR8Qqas5wJuIB3-1" target="4PPtomYR8Qqas5wJuIB3-7">
          <mxGeometry relative="1" as="geometry">
            <mxPoint x="250" y="380" as="targetPoint" />
          </mxGeometry>
        </mxCell>
        <mxCell id="4PPtomYR8Qqas5wJuIB3-18" style="edgeStyle=orthogonalEdgeStyle;rounded=0;orthogonalLoop=1;jettySize=auto;html=1;exitX=0.5;exitY=1;exitDx=0;exitDy=0;entryX=0.5;entryY=0;entryDx=0;entryDy=0;" edge="1" parent="1" source="4PPtomYR8Qqas5wJuIB3-1" target="4PPtomYR8Qqas5wJuIB3-12">
          <mxGeometry relative="1" as="geometry" />
        </mxCell>
        <mxCell id="4PPtomYR8Qqas5wJuIB3-19" style="edgeStyle=orthogonalEdgeStyle;rounded=0;orthogonalLoop=1;jettySize=auto;html=1;exitX=0.75;exitY=1;exitDx=0;exitDy=0;entryX=0.5;entryY=0;entryDx=0;entryDy=0;" edge="1" parent="1" source="4PPtomYR8Qqas5wJuIB3-1" target="4PPtomYR8Qqas5wJuIB3-21">
          <mxGeometry relative="1" as="geometry">
            <mxPoint x="640" y="340" as="targetPoint" />
            <Array as="points">
              <mxPoint x="444" y="320" />
              <mxPoint x="960" y="320" />
            </Array>
          </mxGeometry>
        </mxCell>
        <mxCell id="4PPtomYR8Qqas5wJuIB3-1" value="ATE设备管理平台" style="rounded=0;whiteSpace=wrap;html=1;" vertex="1" parent="1">
          <mxGeometry x="354" y="240" width="120" height="60" as="geometry" />
        </mxCell>
        <mxCell id="4PPtomYR8Qqas5wJuIB3-7" value="UI(表示层)" style="swimlane;fontStyle=0;childLayout=stackLayout;horizontal=1;startSize=30;horizontalStack=0;resizeParent=1;resizeParentMax=0;resizeLast=0;collapsible=1;marginBottom=0;whiteSpace=wrap;html=1;" vertex="1" parent="1">
          <mxGeometry x="20" y="460" width="140" height="150" as="geometry" />
        </mxCell>
        <mxCell id="4PPtomYR8Qqas5wJuIB3-8" value="登录页面" style="text;strokeColor=none;fillColor=none;align=left;verticalAlign=middle;spacingLeft=4;spacingRight=4;overflow=hidden;points=[[0,0.5],[1,0.5]];portConstraint=eastwest;rotatable=0;whiteSpace=wrap;html=1;" vertex="1" parent="4PPtomYR8Qqas5wJuIB3-7">
          <mxGeometry y="30" width="140" height="30" as="geometry" />
        </mxCell>
        <mxCell id="4PPtomYR8Qqas5wJuIB3-9" value="用户管理" style="text;strokeColor=none;fillColor=none;align=left;verticalAlign=middle;spacingLeft=4;spacingRight=4;overflow=hidden;points=[[0,0.5],[1,0.5]];portConstraint=eastwest;rotatable=0;whiteSpace=wrap;html=1;" vertex="1" parent="4PPtomYR8Qqas5wJuIB3-7">
          <mxGeometry y="60" width="140" height="30" as="geometry" />
        </mxCell>
        <mxCell id="4PPtomYR8Qqas5wJuIB3-10" value="ATE执行" style="text;strokeColor=none;fillColor=none;align=left;verticalAlign=middle;spacingLeft=4;spacingRight=4;overflow=hidden;points=[[0,0.5],[1,0.5]];portConstraint=eastwest;rotatable=0;whiteSpace=wrap;html=1;" vertex="1" parent="4PPtomYR8Qqas5wJuIB3-7">
          <mxGeometry y="90" width="140" height="30" as="geometry" />
        </mxCell>
        <mxCell id="4PPtomYR8Qqas5wJuIB3-17" value="ATE管理" style="text;strokeColor=none;fillColor=none;align=left;verticalAlign=middle;spacingLeft=4;spacingRight=4;overflow=hidden;points=[[0,0.5],[1,0.5]];portConstraint=eastwest;rotatable=0;whiteSpace=wrap;html=1;" vertex="1" parent="4PPtomYR8Qqas5wJuIB3-7">
          <mxGeometry y="120" width="140" height="30" as="geometry" />
        </mxCell>
        <mxCell id="4PPtomYR8Qqas5wJuIB3-11" style="edgeStyle=orthogonalEdgeStyle;rounded=0;orthogonalLoop=1;jettySize=auto;html=1;entryX=0;entryY=0.5;entryDx=0;entryDy=0;" edge="1" parent="1" source="4PPtomYR8Qqas5wJuIB3-8" target="4PPtomYR8Qqas5wJuIB3-13">
          <mxGeometry relative="1" as="geometry">
            <mxPoint x="410" y="410" as="targetPoint" />
          </mxGeometry>
        </mxCell>
        <mxCell id="4PPtomYR8Qqas5wJuIB3-12" value="BLL(业务逻辑层)" style="swimlane;fontStyle=0;childLayout=stackLayout;horizontal=1;startSize=30;horizontalStack=0;resizeParent=1;resizeParentMax=0;resizeLast=0;collapsible=1;marginBottom=0;whiteSpace=wrap;html=1;" vertex="1" parent="1">
          <mxGeometry x="380" y="400" width="140" height="150" as="geometry" />
        </mxCell>
        <mxCell id="4PPtomYR8Qqas5wJuIB3-13" value="登录功能" style="text;strokeColor=none;fillColor=none;align=left;verticalAlign=middle;spacingLeft=4;spacingRight=4;overflow=hidden;points=[[0,0.5],[1,0.5]];portConstraint=eastwest;rotatable=0;whiteSpace=wrap;html=1;" vertex="1" parent="4PPtomYR8Qqas5wJuIB3-12">
          <mxGeometry y="30" width="140" height="30" as="geometry" />
        </mxCell>
        <mxCell id="4PPtomYR8Qqas5wJuIB3-14" value="用户管理功能" style="text;strokeColor=none;fillColor=none;align=left;verticalAlign=middle;spacingLeft=4;spacingRight=4;overflow=hidden;points=[[0,0.5],[1,0.5]];portConstraint=eastwest;rotatable=0;whiteSpace=wrap;html=1;" vertex="1" parent="4PPtomYR8Qqas5wJuIB3-12">
          <mxGeometry y="60" width="140" height="30" as="geometry" />
        </mxCell>
        <mxCell id="4PPtomYR8Qqas5wJuIB3-15" value="ATE执行功能" style="text;strokeColor=none;fillColor=none;align=left;verticalAlign=middle;spacingLeft=4;spacingRight=4;overflow=hidden;points=[[0,0.5],[1,0.5]];portConstraint=eastwest;rotatable=0;whiteSpace=wrap;html=1;" vertex="1" parent="4PPtomYR8Qqas5wJuIB3-12">
          <mxGeometry y="90" width="140" height="30" as="geometry" />
        </mxCell>
        <mxCell id="4PPtomYR8Qqas5wJuIB3-28" value="ATE管理功能" style="text;strokeColor=none;fillColor=none;align=left;verticalAlign=middle;spacingLeft=4;spacingRight=4;overflow=hidden;points=[[0,0.5],[1,0.5]];portConstraint=eastwest;rotatable=0;whiteSpace=wrap;html=1;" vertex="1" parent="4PPtomYR8Qqas5wJuIB3-12">
          <mxGeometry y="120" width="140" height="30" as="geometry" />
        </mxCell>
        <mxCell id="4PPtomYR8Qqas5wJuIB3-21" value="DAL(数据访问层)" style="swimlane;fontStyle=0;childLayout=stackLayout;horizontal=1;startSize=30;horizontalStack=0;resizeParent=1;resizeParentMax=0;resizeLast=0;collapsible=1;marginBottom=0;whiteSpace=wrap;html=1;" vertex="1" parent="1">
          <mxGeometry x="890" y="375" width="140" height="120" as="geometry" />
        </mxCell>
        <mxCell id="4PPtomYR8Qqas5wJuIB3-22" value="用户管理数据库" style="text;strokeColor=none;fillColor=none;align=left;verticalAlign=middle;spacingLeft=4;spacingRight=4;overflow=hidden;points=[[0,0.5],[1,0.5]];portConstraint=eastwest;rotatable=0;whiteSpace=wrap;html=1;" vertex="1" parent="4PPtomYR8Qqas5wJuIB3-21">
          <mxGeometry y="30" width="140" height="30" as="geometry" />
        </mxCell>
        <mxCell id="4PPtomYR8Qqas5wJuIB3-23" value="ATE系统标准数据库" style="text;strokeColor=none;fillColor=none;align=left;verticalAlign=middle;spacingLeft=4;spacingRight=4;overflow=hidden;points=[[0,0.5],[1,0.5]];portConstraint=eastwest;rotatable=0;whiteSpace=wrap;html=1;" vertex="1" parent="4PPtomYR8Qqas5wJuIB3-21">
          <mxGeometry y="60" width="140" height="30" as="geometry" />
        </mxCell>
        <mxCell id="4PPtomYR8Qqas5wJuIB3-24" value="后期添加" style="text;strokeColor=none;fillColor=none;align=left;verticalAlign=middle;spacingLeft=4;spacingRight=4;overflow=hidden;points=[[0,0.5],[1,0.5]];portConstraint=eastwest;rotatable=0;whiteSpace=wrap;html=1;" vertex="1" parent="4PPtomYR8Qqas5wJuIB3-21">
          <mxGeometry y="90" width="140" height="30" as="geometry" />
        </mxCell>
        <mxCell id="4PPtomYR8Qqas5wJuIB3-25" style="edgeStyle=orthogonalEdgeStyle;rounded=0;orthogonalLoop=1;jettySize=auto;html=1;entryX=0.1;entryY=0.5;entryDx=0;entryDy=0;entryPerimeter=0;" edge="1" parent="1" source="4PPtomYR8Qqas5wJuIB3-22" target="4PPtomYR8Qqas5wJuIB3-26">
          <mxGeometry relative="1" as="geometry">
            <mxPoint x="1010" y="340" as="targetPoint" />
            <Array as="points">
              <mxPoint x="1080" y="420" />
              <mxPoint x="1080" y="243" />
              <mxPoint x="1132" y="243" />
            </Array>
          </mxGeometry>
        </mxCell>
        <mxCell id="4PPtomYR8Qqas5wJuIB3-26" value="" style="shape=curlyBracket;whiteSpace=wrap;html=1;rounded=1;labelPosition=left;verticalLabelPosition=middle;align=right;verticalAlign=middle;" vertex="1" parent="1">
          <mxGeometry x="1130" y="170" width="20" height="145" as="geometry" />
        </mxCell>
        <mxCell id="4PPtomYR8Qqas5wJuIB3-27" value="&lt;ul&gt;&lt;li&gt;用户名(FS工号)&lt;/li&gt;&lt;li&gt;登录密码&lt;/li&gt;&lt;li&gt;人员中英文名称&lt;/li&gt;&lt;li&gt;飞书邮箱&lt;/li&gt;&lt;li&gt;人员组别&lt;/li&gt;&lt;li&gt;用户管理权限级别&lt;/li&gt;&lt;li&gt;ATE程序编写权限级别&lt;/li&gt;&lt;li&gt;ATE程序审核权限级别&lt;/li&gt;&lt;li&gt;ATE程序测试权限&lt;/li&gt;&lt;li&gt;自动化软件测试权限&lt;/li&gt;&lt;li&gt;账户使用状态&lt;/li&gt;&lt;/ul&gt;" style="text;strokeColor=none;fillColor=none;html=1;whiteSpace=wrap;verticalAlign=middle;overflow=hidden;" vertex="1" parent="1">
          <mxGeometry x="1130" y="150" width="170" height="180" as="geometry" />
        </mxCell>
        <mxCell id="4PPtomYR8Qqas5wJuIB3-29" style="edgeStyle=orthogonalEdgeStyle;rounded=0;orthogonalLoop=1;jettySize=auto;html=1;entryX=0;entryY=0.5;entryDx=0;entryDy=0;" edge="1" parent="1" source="4PPtomYR8Qqas5wJuIB3-13" target="4PPtomYR8Qqas5wJuIB3-30">
          <mxGeometry relative="1" as="geometry">
            <mxPoint x="580" y="400" as="targetPoint" />
          </mxGeometry>
        </mxCell>
        <mxCell id="4PPtomYR8Qqas5wJuIB3-33" style="edgeStyle=orthogonalEdgeStyle;rounded=0;orthogonalLoop=1;jettySize=auto;html=1;entryX=0;entryY=0.5;entryDx=0;entryDy=0;" edge="1" parent="1" source="4PPtomYR8Qqas5wJuIB3-30" target="4PPtomYR8Qqas5wJuIB3-22">
          <mxGeometry relative="1" as="geometry" />
        </mxCell>
        <mxCell id="4PPtomYR8Qqas5wJuIB3-30" value="&lt;div style=&quot;text-align: left;&quot;&gt;&lt;span style=&quot;background-color: initial;&quot;&gt;1.用户管理数据库访问及查找功能&lt;/span&gt;&lt;/div&gt;&lt;div style=&quot;text-align: left;&quot;&gt;&lt;span style=&quot;background-color: initial;&quot;&gt;2.用户名及密码识别功能&lt;/span&gt;&lt;/div&gt;&lt;div style=&quot;text-align: left;&quot;&gt;&lt;span style=&quot;background-color: initial;&quot;&gt;3.本地密码缓存功能&lt;/span&gt;&lt;/div&gt;&lt;div style=&quot;text-align: left;&quot;&gt;&lt;span style=&quot;background-color: initial;&quot;&gt;4.本地登录状态缓存功能&lt;/span&gt;&lt;/div&gt;&lt;div style=&quot;text-align: left;&quot;&gt;&lt;span style=&quot;background-color: initial;&quot;&gt;5.密码找回及相关信息识别功能&lt;/span&gt;&lt;/div&gt;" style="rounded=1;whiteSpace=wrap;html=1;" vertex="1" parent="1">
          <mxGeometry x="580" y="330" width="190" height="92.5" as="geometry" />
        </mxCell>
        <mxCell id="4PPtomYR8Qqas5wJuIB3-34" style="edgeStyle=orthogonalEdgeStyle;rounded=0;orthogonalLoop=1;jettySize=auto;html=1;entryX=0;entryY=0.5;entryDx=0;entryDy=0;" edge="1" parent="1" source="4PPtomYR8Qqas5wJuIB3-14" target="4PPtomYR8Qqas5wJuIB3-35">
          <mxGeometry relative="1" as="geometry">
            <mxPoint x="580" y="475" as="targetPoint" />
          </mxGeometry>
        </mxCell>
        <mxCell id="4PPtomYR8Qqas5wJuIB3-36" style="edgeStyle=orthogonalEdgeStyle;rounded=0;orthogonalLoop=1;jettySize=auto;html=1;entryX=0;entryY=0.5;entryDx=0;entryDy=0;exitX=1;exitY=0.5;exitDx=0;exitDy=0;" edge="1" parent="1" source="4PPtomYR8Qqas5wJuIB3-35" target="4PPtomYR8Qqas5wJuIB3-22">
          <mxGeometry relative="1" as="geometry">
            <mxPoint x="820" y="490" as="sourcePoint" />
            <Array as="points">
              <mxPoint x="830" y="475" />
              <mxPoint x="830" y="420" />
            </Array>
          </mxGeometry>
        </mxCell>
        <mxCell id="4PPtomYR8Qqas5wJuIB3-35" value="1.用户管理数据库访问;查找;增添;修改及删除功能&lt;br&gt;2.用户权限分离功能&lt;br&gt;3.本地用户权限缓存功能" style="rounded=1;whiteSpace=wrap;html=1;align=left;" vertex="1" parent="1">
          <mxGeometry x="580" y="437.5" width="190" height="75" as="geometry" />
        </mxCell>
        <mxCell id="4PPtomYR8Qqas5wJuIB3-38" value="ERP系统" style="shape=hexagon;perimeter=hexagonPerimeter2;whiteSpace=wrap;html=1;fixedSize=1;" vertex="1" parent="1">
          <mxGeometry x="940" y="560" width="90" height="50" as="geometry" />
        </mxCell>
        <mxCell id="4PPtomYR8Qqas5wJuIB3-39" value="ATE设备" style="rhombus;whiteSpace=wrap;html=1;" vertex="1" parent="1">
          <mxGeometry x="945" y="700" width="80" height="60" as="geometry" />
        </mxCell>
        <mxCell id="4PPtomYR8Qqas5wJuIB3-41" value="打流系统" style="shape=hexagon;perimeter=hexagonPerimeter2;whiteSpace=wrap;html=1;fixedSize=1;" vertex="1" parent="1">
          <mxGeometry x="940" y="635" width="90" height="50" as="geometry" />
        </mxCell>
        <mxCell id="4PPtomYR8Qqas5wJuIB3-42" style="edgeStyle=orthogonalEdgeStyle;rounded=0;orthogonalLoop=1;jettySize=auto;html=1;exitX=1;exitY=0.5;exitDx=0;exitDy=0;entryX=0;entryY=0.5;entryDx=0;entryDy=0;" edge="1" parent="1" source="4PPtomYR8Qqas5wJuIB3-15" target="4PPtomYR8Qqas5wJuIB3-43">
          <mxGeometry relative="1" as="geometry">
            <mxPoint x="570" y="620" as="targetPoint" />
          </mxGeometry>
        </mxCell>
        <mxCell id="4PPtomYR8Qqas5wJuIB3-44" style="edgeStyle=orthogonalEdgeStyle;rounded=0;orthogonalLoop=1;jettySize=auto;html=1;exitX=1;exitY=0.25;exitDx=0;exitDy=0;entryX=0;entryY=0.5;entryDx=0;entryDy=0;" edge="1" parent="1" source="4PPtomYR8Qqas5wJuIB3-43" target="4PPtomYR8Qqas5wJuIB3-23">
          <mxGeometry relative="1" as="geometry">
            <Array as="points">
              <mxPoint x="770" y="580" />
              <mxPoint x="840" y="580" />
              <mxPoint x="840" y="450" />
            </Array>
          </mxGeometry>
        </mxCell>
        <mxCell id="4PPtomYR8Qqas5wJuIB3-48" style="edgeStyle=orthogonalEdgeStyle;rounded=0;orthogonalLoop=1;jettySize=auto;html=1;exitX=1;exitY=0.5;exitDx=0;exitDy=0;entryX=0;entryY=0.5;entryDx=0;entryDy=0;" edge="1" parent="1" source="4PPtomYR8Qqas5wJuIB3-43" target="4PPtomYR8Qqas5wJuIB3-38">
          <mxGeometry relative="1" as="geometry">
            <Array as="points">
              <mxPoint x="900" y="627" />
              <mxPoint x="900" y="585" />
            </Array>
          </mxGeometry>
        </mxCell>
        <mxCell id="4PPtomYR8Qqas5wJuIB3-49" style="edgeStyle=orthogonalEdgeStyle;rounded=0;orthogonalLoop=1;jettySize=auto;html=1;exitX=1;exitY=0.5;exitDx=0;exitDy=0;entryX=0;entryY=0.5;entryDx=0;entryDy=0;" edge="1" parent="1" source="4PPtomYR8Qqas5wJuIB3-43" target="4PPtomYR8Qqas5wJuIB3-41">
          <mxGeometry relative="1" as="geometry">
            <Array as="points">
              <mxPoint x="900" y="627" />
              <mxPoint x="900" y="660" />
            </Array>
          </mxGeometry>
        </mxCell>
        <mxCell id="4PPtomYR8Qqas5wJuIB3-55" style="edgeStyle=orthogonalEdgeStyle;rounded=0;orthogonalLoop=1;jettySize=auto;html=1;exitX=1;exitY=0.75;exitDx=0;exitDy=0;entryX=0;entryY=0.5;entryDx=0;entryDy=0;" edge="1" parent="1" source="4PPtomYR8Qqas5wJuIB3-43" target="4PPtomYR8Qqas5wJuIB3-39">
          <mxGeometry relative="1" as="geometry" />
        </mxCell>
        <mxCell id="4PPtomYR8Qqas5wJuIB3-43" value="1.ERP系统接入,可通过订单号获取相关订单信息&lt;br&gt;2.ATE设备接入,可通过产品型号获取相应ATE程序&lt;br&gt;3.打流系统接入,可索引打流设备所有端口状态&lt;br&gt;4.ATE系统标准数据库访问;查找;增添;修改及删除功能&lt;br&gt;5.COM端口自循环功能&lt;br&gt;6.设备序列号(SN)锁定功能" style="rounded=1;whiteSpace=wrap;html=1;align=left;" vertex="1" parent="1">
          <mxGeometry x="580" y="535" width="190" height="185" as="geometry" />
        </mxCell>
        <mxCell id="4PPtomYR8Qqas5wJuIB3-50" style="edgeStyle=orthogonalEdgeStyle;rounded=0;orthogonalLoop=1;jettySize=auto;html=1;exitX=1;exitY=0.5;exitDx=0;exitDy=0;entryX=0;entryY=0.5;entryDx=0;entryDy=0;" edge="1" parent="1" source="4PPtomYR8Qqas5wJuIB3-28" target="4PPtomYR8Qqas5wJuIB3-51">
          <mxGeometry relative="1" as="geometry">
            <mxPoint x="540" y="720" as="targetPoint" />
            <Array as="points">
              <mxPoint x="540" y="535" />
              <mxPoint x="540" y="805" />
            </Array>
          </mxGeometry>
        </mxCell>
        <mxCell id="4PPtomYR8Qqas5wJuIB3-51" value="后期添加" style="rounded=1;whiteSpace=wrap;html=1;" vertex="1" parent="1">
          <mxGeometry x="570" y="770" width="190" height="70" as="geometry" />
        </mxCell>
        <mxCell id="4PPtomYR8Qqas5wJuIB3-52" style="edgeStyle=orthogonalEdgeStyle;rounded=0;orthogonalLoop=1;jettySize=auto;html=1;entryX=0;entryY=0.5;entryDx=0;entryDy=0;" edge="1" parent="1" source="4PPtomYR8Qqas5wJuIB3-9" target="4PPtomYR8Qqas5wJuIB3-14">
          <mxGeometry relative="1" as="geometry">
            <Array as="points">
              <mxPoint x="290" y="535" />
              <mxPoint x="290" y="475" />
            </Array>
          </mxGeometry>
        </mxCell>
        <mxCell id="4PPtomYR8Qqas5wJuIB3-53" style="edgeStyle=orthogonalEdgeStyle;rounded=0;orthogonalLoop=1;jettySize=auto;html=1;entryX=0;entryY=0.5;entryDx=0;entryDy=0;" edge="1" parent="1" source="4PPtomYR8Qqas5wJuIB3-10" target="4PPtomYR8Qqas5wJuIB3-15">
          <mxGeometry relative="1" as="geometry">
            <Array as="points">
              <mxPoint x="310" y="565" />
              <mxPoint x="310" y="505" />
            </Array>
          </mxGeometry>
        </mxCell>
        <mxCell id="4PPtomYR8Qqas5wJuIB3-54" style="edgeStyle=orthogonalEdgeStyle;rounded=0;orthogonalLoop=1;jettySize=auto;html=1;entryX=0;entryY=0.5;entryDx=0;entryDy=0;" edge="1" parent="1" source="4PPtomYR8Qqas5wJuIB3-17" target="4PPtomYR8Qqas5wJuIB3-28">
          <mxGeometry relative="1" as="geometry">
            <Array as="points">
              <mxPoint x="330" y="595" />
              <mxPoint x="330" y="535" />
            </Array>
          </mxGeometry>
        </mxCell>
        <mxCell id="4PPtomYR8Qqas5wJuIB3-56" style="edgeStyle=orthogonalEdgeStyle;rounded=0;orthogonalLoop=1;jettySize=auto;html=1;entryX=0.1;entryY=0.5;entryDx=0;entryDy=0;entryPerimeter=0;" edge="1" parent="1" source="4PPtomYR8Qqas5wJuIB3-23" target="4PPtomYR8Qqas5wJuIB3-57">
          <mxGeometry relative="1" as="geometry">
            <mxPoint x="1120" y="450" as="targetPoint" />
          </mxGeometry>
        </mxCell>
        <mxCell id="4PPtomYR8Qqas5wJuIB3-57" value="" style="shape=curlyBracket;whiteSpace=wrap;html=1;rounded=1;labelPosition=left;verticalLabelPosition=middle;align=right;verticalAlign=middle;" vertex="1" parent="1">
          <mxGeometry x="1130" y="377.5" width="20" height="145" as="geometry" />
        </mxCell>
      </root>
    </mxGraphModel>
  </diagram>
</mxfile>
